<?xml version="1.0" encoding="UTF-8" standalone="no"?>
<svg
   xmlns:dc="http://purl.org/dc/elements/1.1/"
   xmlns:cc="http://creativecommons.org/ns#"
   xmlns:rdf="http://www.w3.org/1999/02/22-rdf-syntax-ns#"
   xmlns:svg="http://www.w3.org/2000/svg"
   xmlns="http://www.w3.org/2000/svg"
   xmlns:sodipodi="http://sodipodi.sourceforge.net/DTD/sodipodi-0.dtd"
   xmlns:inkscape="http://www.inkscape.org/namespaces/inkscape"
   width="100"
   height="100"
   viewBox="0 0 26.458333 26.458334"
   version="1.1"
   id="svg1471"
   inkscape:version="1.0 (4035a4fb49, 2020-05-01)"
   sodipodi:docname="buffer.svg">
  <defs
     id="defs1465" />
  <sodipodi:namedview
     inkscape:snap-page="true"
     inkscape:snap-text-baseline="true"
     inkscape:snap-center="true"
     inkscape:snap-object-midpoints="true"
     inkscape:snap-midpoints="true"
     inkscape:snap-smooth-nodes="true"
     inkscape:object-nodes="true"
     inkscape:snap-intersection-paths="true"
     inkscape:object-paths="true"
     inkscape:snap-bbox-midpoints="true"
     inkscape:snap-bbox-edge-midpoints="true"
     inkscape:bbox-nodes="true"
     inkscape:bbox-paths="true"
     inkscape:snap-bbox="true"
     id="base"
     pagecolor="#ffffff"
     bordercolor="#666666"
     borderopacity="1.0"
     inkscape:pageopacity="0.0"
     inkscape:pageshadow="2"
     inkscape:zoom="2"
     inkscape:cx="88.820083"
     inkscape:cy="82.155976"
     inkscape:document-units="px"
     inkscape:current-layer="layer1"
     inkscape:document-rotation="0"
     showgrid="false"
     units="px"
     showguides="true"
     inkscape:guide-bbox="true"
     inkscape:window-width="1712"
     inkscape:window-height="908"
     inkscape:window-x="0"
     inkscape:window-y="0"
     inkscape:window-maximized="1">
    <sodipodi:guide
       position="13.227623,10.867633"
       orientation="-1,0"
       id="guide2034"
       inkscape:label=""
       inkscape:locked="false"
       inkscape:color="rgb(0,0,255)" />
    <sodipodi:guide
       position="9.2604166,13.229167"
       orientation="0,1"
       id="guide2036"
       inkscape:label=""
       inkscape:locked="false"
       inkscape:color="rgb(0,0,255)" />
  </sodipodi:namedview>
  <metadata
     id="metadata1468">
    <rdf:RDF>
      <cc:Work
         rdf:about="">
        <dc:format>image/svg+xml</dc:format>
        <dc:type
           rdf:resource="http://purl.org/dc/dcmitype/StillImage" />
        <dc:title />
      </cc:Work>
    </rdf:RDF>
  </metadata>
  <g
     inkscape:label="Layer 1"
     inkscape:groupmode="layer"
     id="layer1">
    <path
       sodipodi:nodetypes="cccccccccccccccc"
       id="path46"
       style="fill:#dcdbdb;fill-opacity:1;fill-rule:nonzero;stroke:none;stroke-width:0.0536209"
       d="m 2.5106443,7.0983118 0.1601197,-0.969298 0.7199303,-1.466514 0.714794,-1.475808 0.1447109,-0.99718 0.2673951,0.480721 v 0 l 0.8021853,1.442165 v 0 l -0.1457698,0.995355 -0.7171703,1.47177 -0.7223156,1.46247 -0.1612055,0.96746 6.73e-4,-2.95e-4 -0.5320101,-0.955275 z" />
    <path
       sodipodi:nodetypes="cccccccccccccccc"
       id="path58"
       style="fill:#000000;fill-opacity:1;fill-rule:nonzero;stroke:none;stroke-width:0.0536209"
       d="m 3.5739917,9.0091578 0.8967399,0.3649 1.6051849,0.137007 1.6103301,0.146306 0.9121848,0.3928722 h -4.78e-5 L 8.07646,9.1120558 7.5543836,8.1738678 v 0 L 6.6297321,7.7583218 4.9917389,7.5621328 3.3588774,7.3752478 2.4495124,6.9877408 v 0 l 0.5622368,1.010605 z" />
    <path
       d="m 5.7595795,12.981574 0.1601197,-0.969298 0.7199303,-1.466514 0.714794,-1.4758082 0.1447109,-0.99718 0.2673951,0.480721 v 0 l 0.8021853,1.442165 v 0 l -0.1457698,0.9953552 -0.7171703,1.47177 -0.7223156,1.46247 -0.1612055,0.96746 6.73e-4,-2.95e-4 -0.5320101,-0.955275 z"
       style="fill:#dcdbdb;fill-opacity:1;fill-rule:nonzero;stroke:none;stroke-width:0.0536209"
       id="path1652"
       sodipodi:nodetypes="cccccccccccccccc" />
    <path
       d="m 6.809391,14.868566 0.8967399,0.364899 1.6051849,0.137008 1.6103302,0.146306 0.912185,0.392872 -4.8e-5,0 -0.521924,-0.938187 -0.522076,-0.938188 v 0 L 9.8651314,13.61773 8.2271382,13.421541 6.5942767,13.234656 5.6849117,12.847149 v 0 l 0.5622368,1.010605 z"
       style="fill:#000000;fill-opacity:1;fill-rule:nonzero;stroke:none;stroke-width:0.0536209"
       id="path1656"
       sodipodi:nodetypes="cccccccccccccccc" />
    <path
       sodipodi:nodetypes="cccccccccccccccc"
       id="path1660"
       style="fill:#dcdbdb;fill-opacity:1;fill-rule:nonzero;stroke:none;stroke-width:0.0536209"
       d="m 9.0020032,18.876665 0.1601197,-0.969298 0.7199303,-1.466514 0.7147938,-1.475808 0.144711,-0.99718 0.267395,0.480722 v 0 l 0.802186,1.442164 v 0 l -0.14577,0.995356 -0.717171,1.471769 -0.722315,1.462471 -0.161206,0.967459 6.73e-4,-2.95e-4 -0.5320098,-0.955275 z" />
    <path
       sodipodi:nodetypes="cccccccccccccccc"
       id="path1664"
       style="fill:#000000;fill-opacity:1;fill-rule:nonzero;stroke:none;stroke-width:0.0536209"
       d="m 10.066787,20.779166 0.89674,0.364899 1.605185,0.137007 1.61033,0.146306 0.912185,0.392873 -4.8e-5,-10e-7 -0.521923,-0.938187 -0.522077,-0.938187 v 0 L 13.122528,19.528329 11.484534,19.332141 9.851673,19.145256 8.942308,18.757749 v 0 l 0.5622368,1.010604 z" />
    <path
       sodipodi:nodetypes="ccccc"
       d="m 4.3945804,2.7234588 0.348619,-0.955435 1.1598114,0.03655 0.6301359,0.971949 0.7971894,0.70478"
       style="fill:none;stroke:#000000;stroke-width:0.264583px;stroke-linecap:butt;stroke-linejoin:miter;stroke-opacity:1"
       id="path1623" />
    <path
       sodipodi:nodetypes="cccccccccccccccc"
       d="m 16.47341,15.997742 0.799776,-0.570557 1.547116,-0.524781 1.550076,-0.534979 0.808658,-0.60115 v 0 l -0.303832,1.057383 -0.303831,1.057383 v 0 l -0.810818,0.608612 -1.554838,0.551345 -1.551872,0.541134 -0.801916,0.577981 v 0 l 0.31074,-1.081185 z"
       style="fill:#dcdbdb;fill-opacity:1;fill-rule:nonzero;stroke:none;stroke-width:0.0536209"
       id="path1578" />
    <path
       sodipodi:nodetypes="cccccccccccccccc"
       d="m 15.884179,18.030027 0.369186,0.910409 1.024605,1.272461 1.021647,1.282669 0.360314,0.941031 0.151911,-0.528704 v 0 l 0.455735,-1.586114 v 0 l -0.358123,-0.948471 -1.016876,-1.29902 -1.019843,-1.288809 -0.367024,-0.91784 v 0 l -0.310766,1.081194 z"
       style="fill:#000000;fill-opacity:1;fill-rule:nonzero;stroke:none;stroke-width:0.0536209"
       id="path1594" />
    <path
       id="path1672"
       style="fill:#dcdbdb;fill-opacity:1;fill-rule:nonzero;stroke:none;stroke-width:0.0536209"
       d="m 18.337744,9.5605558 0.799776,-0.570557 1.547116,-0.524782 1.550076,-0.534979 0.808658,-0.60115 v 0 l -0.303832,1.057383 -0.303831,1.057384 v 0 l -0.810818,0.6086122 -1.554838,0.551345 -1.551872,0.541134 -0.801916,0.577981 v 0 l 0.31074,-1.081186 z"
       sodipodi:nodetypes="cccccccccccccccc" />
    <path
       id="path1668"
       style="fill:#000000;fill-opacity:1;fill-rule:nonzero;stroke:none;stroke-width:0.0536209"
       d="m 17.795638,11.474521 0.369186,0.91041 1.024605,1.272461 1.021647,1.282668 0.360314,0.941031 0.151911,-0.528704 v 0 l 0.455735,-1.586113 v 0 L 20.820913,12.817803 19.804037,11.518783 18.784194,10.229974 18.41717,9.3121338 v 0 l -0.310766,1.0811932 z"
       sodipodi:nodetypes="cccccccccccccccc" />
    <path
       sodipodi:nodetypes="cccccccccccccccc"
       d="m 19.61722,5.2101528 0.369186,0.91041 1.024605,1.272461 1.021647,1.282668 0.360314,0.941032 0.151911,-0.528705 v 0 l 0.455735,-1.586113 v 0 l -0.358123,-0.948471 -1.016876,-1.29902 -1.019843,-1.288809 -0.367024,-0.91784 v 0 l -0.310766,1.081193 z"
       style="fill:#000000;fill-opacity:1;fill-rule:nonzero;stroke:none;stroke-width:0.0536209"
       id="path1676" />
    <path
       sodipodi:nodetypes="cccccccccccccccc"
       d="m 20.229335,3.0779668 0.799776,-0.570557 1.547116,-0.524782 1.550076,-0.534979 0.808658,-0.60115002 v 0 l -0.303832,1.05738302 -0.303831,1.057384 v 0 l -0.810818,0.608612 -1.554838,0.551345 -1.551872,0.541134 -0.801916,0.577981 v 0 l 0.31074,-1.081186 z"
       style="fill:#dcdbdb;fill-opacity:1;fill-rule:nonzero;stroke:none;stroke-width:0.0536209"
       id="path1680" />
    <path
       sodipodi:nodetypes="cccccccccc"
       d="m 14.576837,21.334069 0.531908,0.639266 0.04677,0.814298 0.479363,0.265247 1.032812,0.167312 0.620847,0.676534 0.975522,-0.136896 -0.0754,-0.407325 0.211192,-0.731811 0.272339,-0.7256"
       style="fill:none;stroke:#000000;stroke-width:0.264583px;stroke-linecap:butt;stroke-linejoin:miter;stroke-opacity:1"
       id="path1604" />
  </g>
</svg>
