<?xml version="1.0" encoding="UTF-8" standalone="no"?>
<svg
   xmlns:dc="http://purl.org/dc/elements/1.1/"
   xmlns:cc="http://creativecommons.org/ns#"
   xmlns:rdf="http://www.w3.org/1999/02/22-rdf-syntax-ns#"
   xmlns:svg="http://www.w3.org/2000/svg"
   xmlns="http://www.w3.org/2000/svg"
   xmlns:xlink="http://www.w3.org/1999/xlink"
   xmlns:sodipodi="http://sodipodi.sourceforge.net/DTD/sodipodi-0.dtd"
   xmlns:inkscape="http://www.inkscape.org/namespaces/inkscape"
   width="210mm"
   height="297mm"
   viewBox="0 0 210 297"
   version="1.1"
   id="svg8"
   inkscape:version="1.0.1 (3bc2e813f5, 2020-09-07, custom)"
   sodipodi:docname="f_inada2009_S4D_orig.svg">
  <defs
     id="defs2" />
  <sodipodi:namedview
     id="base"
     pagecolor="#ffffff"
     bordercolor="#666666"
     borderopacity="1.0"
     inkscape:pageopacity="0.0"
     inkscape:pageshadow="2"
     inkscape:zoom="2.1121794"
     inkscape:cx="541.9727"
     inkscape:cy="454.20015"
     inkscape:document-units="mm"
     inkscape:current-layer="layer1"
     inkscape:document-rotation="0"
     showgrid="false"
     inkscape:window-width="1920"
     inkscape:window-height="1052"
     inkscape:window-x="0"
     inkscape:window-y="0"
     inkscape:window-maximized="1"
     showguides="false"
     inkscape:snap-bbox="true"
     inkscape:bbox-paths="true"
     inkscape:bbox-nodes="true"
     inkscape:snap-bbox-edge-midpoints="true"
     inkscape:snap-bbox-midpoints="true"
     inkscape:object-paths="true"
     inkscape:snap-intersection-paths="true"
     inkscape:snap-smooth-nodes="true"
     inkscape:snap-midpoints="true"
     inkscape:snap-object-midpoints="true"
     inkscape:snap-center="true"
     inkscape:snap-text-baseline="true"
     inkscape:snap-page="true"
     inkscape:snap-global="false" />
  <metadata
     id="metadata5">
    <rdf:RDF>
      <cc:Work
         rdf:about="">
        <dc:format>image/svg+xml</dc:format>
        <dc:type
           rdf:resource="http://purl.org/dc/dcmitype/StillImage" />
        <dc:title></dc:title>
      </cc:Work>
    </rdf:RDF>
  </metadata>
  <g
     inkscape:label="Layer 1"
     inkscape:groupmode="layer"
     id="layer1">
    <image
       sodipodi:absref="/home/cslz90/Documents/Paper/eigenes/2020-InaMo/img/plots/ref/f_inada2009_S4D_orig.png"
       xlink:href="../../../../Paper/eigenes/2020-InaMo/img/plots/ref/f_inada2009_S4D_orig.png"
       y="100.16811"
       x="36.924561"
       id="image2471"
       preserveAspectRatio="none"
       height="106.89167"
       width="279.13541" />
    <path
       style="fill:none;fill-opacity:1;stroke:#fe0000;stroke-width:0.264583px;stroke-linecap:butt;stroke-linejoin:miter;stroke-opacity:1"
       d="M 70.274784,197.59601 V 120.78209"
       id="yaxis"
       sodipodi:nodetypes="cc" />
    <path
       style="fill:none;stroke:#a600fd;stroke-width:0.264583px;stroke-linecap:butt;stroke-linejoin:miter;stroke-opacity:1"
       d="M 70.274784,120.78209 H 180.23777"
       id="xaxis"
       sodipodi:nodetypes="cc" />
    <path
       style="fill:none;stroke:#f46004;stroke-width:0.264583px;stroke-linecap:butt;stroke-linejoin:miter;stroke-opacity:1"
       d="m 71.207481,134.0581 c 1.255897,17.87561 2.64753,24.54743 5.283287,36.00212 3.887789,16.89588 11.42202,22.10721 23.913492,22.17323 3.70316,0.0196 57.86317,0.43709 57.86317,0.43709 l -0.0642,-55.79863 c 0.057,-0.27744 0.31421,-0.39571 0.6522,-0.60112 4.20976,-2.55851 14.54394,-6.80392 21.24406,-7.96079"
       id="data_I_f_1"
       sodipodi:nodetypes="cssccsc" />
    <path
       style="fill:none;stroke:#f4e504;stroke-width:0.264583px;stroke-linecap:butt;stroke-linejoin:miter;stroke-opacity:1"
       d="m 70.728319,129.66802 c 1.934059,11.35687 2.374865,16.79989 5.864795,27.97284 5.767106,18.46328 14.285124,22.23676 31.873186,22.70345 3.70191,0.0982 49.80113,0.14464 49.80113,0.14464 l -0.0642,-44.40142 c 0.057,-0.27744 0.35149,-0.55787 0.68749,-0.76651 4.1262,-2.56214 14.50865,-6.31476 21.20877,-7.47163"
       id="data_I_f_2"
       sodipodi:nodetypes="cssccsc" />
    <path
       style="fill:none;stroke:#4cf404;stroke-width:0.264583px;stroke-linecap:butt;stroke-linejoin:miter;stroke-opacity:1"
       d="m 70.541037,126.36099 c 2.305401,5.75123 2.540997,8.765 7.364604,17.5838 10.573934,19.33189 25.224399,22.36867 60.621699,22.85078 3.70287,0.0504 19.74009,0.14464 19.74009,0.14464 l -0.0642,-32.67616 c 0.14073,-0.24991 0.27717,-0.41223 0.68324,-0.63308 4.26676,-2.32052 14.5129,-5.50548 21.21302,-6.66235"
       id="data_I_f_3"
       sodipodi:nodetypes="cssccsc" />
    <path
       style="fill:none;stroke:#04f4da;stroke-width:0.264583px;stroke-linecap:butt;stroke-linejoin:miter;stroke-opacity:1"
       d="m 70.599165,125.15544 c 1.462305,1.33929 1.979812,2.69315 8.477538,7.82048 9.197407,7.25764 24.345377,15.19977 59.655127,17.73418 3.82587,0.27461 19.5356,0.87401 19.5356,0.87401 l -0.0642,-20.21596 c 0.14073,-0.24991 0.25184,-0.46707 0.68324,-0.63308 4.46098,-1.71661 13.69733,-3.91717 21.21302,-4.94938"
       id="data_I_f_4"
       sodipodi:nodetypes="cssccsc" />
    <path
       style="fill:none;stroke:#045ef4;stroke-width:0.264583px;stroke-linecap:butt;stroke-linejoin:miter;stroke-opacity:1"
       d="m 70.556347,124.22344 c 1.749097,0.43558 7.865848,3.03473 16.009132,4.87426 9.98341,2.25521 22.379081,5.32781 52.181521,7.48817 3.82567,0.27732 19.52043,1.02778 19.52043,1.02778 l -0.0642,-9.5918 c 0.14073,-0.24991 0.23734,-0.51128 0.68324,-0.63308 5.46047,-1.49158 13.34196,-2.14256 21.21302,-3.0744"
       id="data_I_f_5"
       sodipodi:nodetypes="cssccsc" />
  </g>
</svg>
